<?xml version="1.0" encoding="UTF-8"?>
<svg version="1.1" xmlns="http://www.w3.org/2000/svg" width="500" height="500">
<path d="M0 0 C4.03802242 3.487383 7.47095622 7.17082496 8.4753418 12.54199219 C8.58670084 20.97538442 6.40981303 28.17250583 3.61077881 36.00646973 C2.7917819 38.30822739 2.00226923 40.61839328 1.21923828 42.93261719 C-1.40351601 50.65702329 -4.11491335 58.34434021 -6.92518616 66.00250244 C-8.2149238 69.54639592 -9.46328633 73.10411678 -10.70547485 76.66491699 C-11.3111377 78.36763141 -11.9357289 80.06374904 -12.58041382 81.7520752 C-16.51507124 92.07048592 -17.99216424 98.91126566 -13.40908813 109.26593018 C-12.64367485 110.86253787 -11.82736487 112.43459877 -11 114 C-9.3603125 113.01 -9.3603125 113.01 -7.6875 112 C-5.06292462 110.41535071 -4.1743622 110 -1 110 C-1.04640625 111.12535156 -1.0928125 112.25070312 -1.140625 113.41015625 C-1.64105079 130.8429279 1.72800926 146.99123967 14.03515625 160.16015625 C24.967808 170.39729139 38.07788756 175.10474488 52.8125 176.3125 C67.11479532 175.7881796 81.6105662 170.34702366 91.97265625 160.3515625 C102.49371549 148.14794465 107.23768697 134.0265862 107.0625 118.125 C107.05573242 116.949375 107.05573242 116.949375 107.04882812 115.75 C107.03714093 113.83329986 107.01920908 111.91663952 107 110 C110.49529294 111.11213866 113.74469192 112.31573191 117 114 C121.22884096 106.26171648 124.0411222 99.53909169 121.70776367 90.73614502 C120.30061397 86.30870591 118.70664571 81.96898661 117.0625 77.625 C116.39411656 75.74020867 115.73125747 73.85344986 115.07373047 71.96484375 C113.73667744 68.14242499 112.37569778 64.33008268 110.99169922 60.52441406 C108.30552351 53.11508783 105.79054083 45.65238968 103.33981323 38.16229248 C102.64476889 36.05980041 101.92600227 33.96667721 101.20336914 31.87353516 C95.68793937 15.5389249 95.68793937 15.5389249 99.00268555 7.59790039 C101.78172998 2.55789747 105.52453762 -0.65465972 110.9375 -2.75 C116.83454382 -3.46479319 121.92512306 -3.33461558 127 0 C133.41362792 5.63673559 135.6170757 11.65290357 137.6875 19.75 C138.35196879 22.1605451 139.02290131 24.56931487 139.69921875 26.9765625 C139.87661591 27.61306732 140.05401306 28.24957214 140.23678589 28.90536499 C142.31736806 36.28686018 144.76374301 43.54311909 147.21759033 50.80731201 C147.99864585 53.12098868 148.77428974 55.43641249 149.54833984 57.75244141 C152.41463871 66.32474311 152.41463871 66.32474311 155.33447266 74.87890625 C156.50940936 78.28921177 157.6626327 81.70617947 158.8125 85.125 C159.15603516 86.09453613 159.49957031 87.06407227 159.85351562 88.06298828 C163.91968819 100.30268791 160.06687044 109.22614721 155.0625 120.5625 C154.17249607 122.62132249 153.28764781 124.68231219 152.4030304 126.74345398 C151.80601944 128.13369813 151.20745605 129.52327664 150.60734558 130.91218567 C147.76533303 137.49925154 145.08164835 144.14338722 142.4375 150.8125 C142.04506104 151.80000244 141.65262207 152.78750488 141.24829102 153.80493164 C140.87631592 154.74199951 140.50434082 155.67906738 140.12109375 156.64453125 C139.76378174 157.53881836 139.40646973 158.43310547 139.03833008 159.35449219 C138.34220592 161.12811114 137.66770981 162.91036153 137.0144043 164.70019531 C131.03522192 180.73847276 116.33846603 190.13471271 101.5546875 197.45703125 C73.92871206 209.44852609 36.09264735 209.79213445 7.9375 199.125 C-5.23425902 193.75772762 -22.97226167 183.46017477 -28.934021 169.8710022 C-29.24679993 169.06359589 -29.55957886 168.25618958 -29.88183594 167.42431641 C-30.40491837 166.08776505 -30.40491837 166.08776505 -30.93856812 164.72421265 C-31.28884064 163.82522247 -31.63911316 162.9262323 -32 162 C-32.63731318 160.40947855 -33.27706013 158.81992978 -33.91943359 157.23144531 C-34.2401181 156.43651672 -34.56080261 155.64158813 -34.89120483 154.8225708 C-36.33854007 151.2381961 -37.78660593 147.65411738 -39.23535156 144.0703125 C-39.99212697 142.19750413 -40.74831662 140.32445896 -41.50390625 138.45117188 C-42.61315367 135.70124316 -43.7244387 132.95214437 -44.8359375 130.203125 C-45.3723587 128.87093933 -45.3723587 128.87093933 -45.9196167 127.51184082 C-47.49767199 123.61200409 -49.09652732 119.73304731 -50.84082031 115.90429688 C-51.38061523 114.71384766 -51.92041016 113.52339844 -52.4765625 112.296875 C-53.17773193 110.80945801 -53.17773193 110.80945801 -53.89306641 109.29199219 C-56.85447237 100.48484662 -55.86900114 93.68872614 -52.9140625 85.03515625 C-52.58152969 84.01156006 -52.24899689 82.98796387 -51.90638733 81.93334961 C-50.83062096 78.6368269 -49.7282286 75.34992193 -48.625 72.0625 C-47.88087034 69.79865314 -47.13844315 67.53424598 -46.39770508 65.26928711 C-44.28865418 58.83826086 -42.14745718 52.41828258 -40 46 C-39.46724814 44.40116242 -38.93482164 42.80221637 -38.40283203 41.203125 C-35.0001215 30.97889852 -35.0001215 30.97889852 -33.65283203 27.02954102 C-31.79153433 21.55095943 -30.18820879 16.08682786 -28.84399414 10.45678711 C-27.13008774 5.46776769 -23.60780603 1.70776678 -19.234375 -1.15625 C-12.42681805 -4.46803446 -6.4650937 -3.47199476 0 0 Z " fill="#0D0D0D" transform="translate(197,215)"/>
<path d="M0 0 C165 0 330 0 500 0 C500 84.15 500 168.3 500 255 C455.12 255 410.24 255 364 255 C363.67 252.36 363.34 249.72 363 247 C405.9 247 448.8 247 493 247 C493 168.46 493 89.92 493 9 C332.62 9 172.24 9 7 9 C7 87.54 7 166.08 7 247 C49.9 247 92.8 247 137 247 C136.67 249.64 136.34 252.28 136 255 C91.12 255 46.24 255 0 255 C0 170.85 0 86.7 0 0 Z " fill="#2C2C2C" transform="translate(0,60)"/>
<path d="M0 0 C9.95870043 7.79816881 17.98349576 19.81503709 20.09375 32.4765625 C21.40290555 46.9257608 19.26446563 60.67844147 10.296875 72.4375 C0.59147891 83.76609822 -11.99535349 90.69103174 -27.01171875 92.0078125 C-38.80736416 92.25398249 -48.75789043 89.00756225 -58.6953125 82.8046875 C-59.32953125 82.46050781 -59.96375 82.11632812 -60.6171875 81.76171875 C-69.95427586 76.17231494 -76.06704731 63.95792624 -78.6953125 53.8046875 C-81.65655524 38.77838141 -79.24462878 24.5539954 -70.6953125 11.8046875 C-54.16526707 -10.0770393 -23.09554611 -15.2203435 0 0 Z " fill="#070707" transform="translate(279.6953125,295.1953125)"/>
<path d="M0 0 C2.90234375 1.5390625 2.90234375 1.5390625 5.9375 3.625 C33.00017275 21.18599595 69.07699166 23.54810375 100 17 C112.46905321 14.09628411 125.48756477 10.07130829 136 2.625 C138.76785102 0.66486759 139.93033247 0.01161125 143.375 -0.5625 C146 0 146 0 147.875 1.125 C149.69737942 4.16229903 149.80620559 5.50644242 149 9 C134.34012853 25.78791733 103.16447975 32.35532181 82.015625 33.875 C51.29954852 35.14820524 16.23903318 30.81623022 -8 10 C-9 9 -9 9 -9.25 6.125 C-9 3 -9 3 -7.875 1.125 C-5.11035605 -0.53378637 -3.19134882 -0.29116748 0 0 Z " fill="#262626" transform="translate(180,406)"/>
<path d="M0 0 C5.61 0 11.22 0 17 0 C17.33 2.64 17.66 5.28 18 8 C15.56065775 8.13501894 13.12875896 8.23403897 10.6875 8.3125 C9.65206055 8.3753418 9.65206055 8.3753418 8.59570312 8.43945312 C6.57421875 8.48828125 6.57421875 8.48828125 3 8 C0.57965376 5.1500065 0 3.74118282 0 0 Z " fill="#474747" transform="translate(297,307)"/>
<path d="M0 0 C5.61 0 11.22 0 17 0 C16 4 16 4 14 8 C9.05 8 4.1 8 -1 8 C-0.67 5.36 -0.34 2.72 0 0 Z " fill="#474747" transform="translate(186,307)"/>
<path d="M0 0 C1.32 0.66 2.64 1.32 4 2 C3.34 2 2.68 2 2 2 C2.04640625 3.05316406 2.0928125 4.10632813 2.140625 5.19140625 C2.49993919 17.08345725 1.72635113 28.74665099 -5 39 C-5.33 38.34 -5.66 37.68 -6 37 C-5.29296875 34.96875 -5.29296875 34.96875 -4.1875 32.5 C0.25752737 21.68735557 0.24046098 11.51540935 0 0 Z " fill="#D9D9D9" transform="translate(304,325)"/>
<path d="M0 0 C0.99 0 1.98 0 3 0 C2.95359375 1.12535156 2.9071875 2.25070312 2.859375 3.41015625 C2.49179711 16.42070393 4.85419316 26.67462832 9 39 C5.94090217 36.46531894 5.05949943 33.86503364 3.875 30.125 C3.54242188 29.09632813 3.20984375 28.06765625 2.8671875 27.0078125 C1.20787718 21.25254698 0.87260808 16.14258191 0.9375 10.1875 C0.94201172 9.39923828 0.94652344 8.61097656 0.95117188 7.79882812 C0.96288688 5.86585239 0.98082002 3.93291607 1 2 C0.34 1.67 -0.32 1.34 -1 1 C-0.67 0.67 -0.34 0.34 0 0 Z " fill="#DADADA" transform="translate(193,325)"/>
<path d="M0 0 C0.99 0 1.98 0 3 0 C2.67 6.27 2.34 12.54 2 19 C1.67 19 1.34 19 1 19 C1 13.39 1 7.78 1 2 C0.34 1.67 -0.32 1.34 -1 1 C-0.67 0.67 -0.34 0.34 0 0 Z " fill="#B0B0B0" transform="translate(193,325)"/>
<path d="M0 0 C1.98 0.99 1.98 0.99 4 2 C3.34 2 2.68 2 2 2 C2 7.61 2 13.22 2 19 C1.67 19 1.34 19 1 19 C0.67 12.73 0.34 6.46 0 0 Z " fill="#A9A9A9" transform="translate(304,325)"/>
</svg>
