<svg width="34" height="24" viewBox="0 0 34 24" fill="none" xmlns="http://www.w3.org/2000/svg">
<path d="M28.2656 0.857422C29.0012 0.857422 29.7066 1.15844 30.2267 1.69426C30.7469 2.23008 31.0391 2.9568 31.0391 3.71456V18.0003C31.0391 19.586 29.8049 20.8574 28.2656 20.8574H33.8125V23.7146H0.53125V20.8574H6.07812C5.34256 20.8574 4.63713 20.5564 4.11701 20.0206C3.59689 19.4848 3.30469 18.758 3.30469 18.0003V3.71456C3.30469 2.12885 4.53887 0.857422 6.07812 0.857422H28.2656ZM28.2656 3.71456H6.07812V18.0003H28.2656V3.71456ZM17.1719 12.286C20.2365 12.286 22.7188 13.5717 22.7188 15.1431V16.5717H11.625V15.1431C11.625 13.5717 14.1072 12.286 17.1719 12.286ZM17.1719 5.14314C17.9074 5.14314 18.6129 5.44416 19.133 5.97997C19.6531 6.51579 19.9453 7.24252 19.9453 8.00028C19.9453 8.75804 19.6531 9.48477 19.133 10.0206C18.6129 10.5564 17.9074 10.8574 17.1719 10.8574C15.6326 10.8574 14.3984 9.58599 14.3984 8.00028C14.3984 6.41456 15.6465 5.14314 17.1719 5.14314Z" fill="none"/>
</svg>
