<svg width="31" height="31" viewBox="0 0 31 31" fill="currentColor" xmlns="http://www.w3.org/2000/svg">
<g clip-path="url(#clip0_508_239)">
<path d="M25.3818 5.68115C26.0449 5.68115 26.6808 5.94454 27.1496 6.41339C27.6184 6.88223 27.8818 7.51811 27.8818 8.18115V20.6812C27.8818 22.0687 26.7693 23.1812 25.3818 23.1812H30.3818V25.6812H0.381836V23.1812H5.38184C4.71879 23.1812 4.08291 22.9178 3.61407 22.4489C3.14523 21.9801 2.88184 21.3442 2.88184 20.6812V8.18115C2.88184 6.79365 3.99434 5.68115 5.38184 5.68115H25.3818ZM25.3818 8.18115H5.38184V20.6812H25.3818V8.18115ZM15.3818 15.6812C18.1443 15.6812 20.3818 16.8062 20.3818 18.1812V19.4312H10.3818V18.1812C10.3818 16.8062 12.6193 15.6812 15.3818 15.6812ZM15.3818 9.43115C16.0449 9.43115 16.6808 9.69454 17.1496 10.1634C17.6184 10.6322 17.8818 11.2681 17.8818 11.9312C17.8818 12.5942 17.6184 13.2301 17.1496 13.6989C16.6808 14.1678 16.0449 14.4312 15.3818 14.4312C13.9943 14.4312 12.8818 13.3187 12.8818 11.9312C12.8818 10.5437 14.0068 9.43115 15.3818 9.43115Z" fill="#F8F8F8"/>
</g>
<defs>
<clipPath id="clip0_508_239">
<rect width="30" height="30" fill="white" transform="translate(0.381836 0.681152)"/>
</clipPath>
</defs>
</svg>
