<svg width="26" height="26" viewBox="0 0 26 26" fill="none" xmlns="http://www.w3.org/2000/svg">
<path d="M3.13184 5.18115H0.631836V22.6812C0.631836 24.0562 1.75684 25.1812 3.13184 25.1812H20.6318V22.6812H3.13184V5.18115ZM23.1318 0.181152H8.13184C6.75684 0.181152 5.63184 1.30615 5.63184 2.68115V17.6812C5.63184 19.0562 6.75684 20.1812 8.13184 20.1812H23.1318C24.5068 20.1812 25.6318 19.0562 25.6318 17.6812V2.68115C25.6318 1.30615 24.5068 0.181152 23.1318 0.181152ZM21.8818 11.4312H9.38184V8.93115H21.8818V11.4312ZM16.8818 16.4312H9.38184V13.9312H16.8818V16.4312ZM21.8818 6.43115H9.38184V3.93115H21.8818V6.43115Z" fill="white"/>
</svg>
