<svg width="29" height="25" viewBox="0 0 29 25" fill="none" xmlns="http://www.w3.org/2000/svg">
<path d="M25.6318 0.806152H3.13184C1.75684 0.806152 0.631836 1.93115 0.631836 3.30615V13.3062H3.13184V3.30615H25.6318V23.3062C27.0068 23.3062 28.1318 22.1812 28.1318 20.8062V3.30615C28.1318 1.93115 27.0068 0.806152 25.6318 0.806152Z" fill="white"/>
<path d="M10.6318 14.5562C13.3933 14.5562 15.6318 12.3176 15.6318 9.55615C15.6318 6.79473 13.3933 4.55615 10.6318 4.55615C7.87041 4.55615 5.63184 6.79473 5.63184 9.55615C5.63184 12.3176 7.87041 14.5562 10.6318 14.5562Z" fill="white"/>
<path d="M18.6193 17.7562C16.5193 16.6812 13.7943 15.8062 10.6318 15.8062C7.46934 15.8062 4.74434 16.6812 2.64434 17.7562C1.39434 18.3937 0.631836 19.6812 0.631836 21.0812V24.5562H20.6318V21.0812C20.6318 19.6812 19.8693 18.3937 18.6193 17.7562Z" fill="white"/>
</svg>
