<svg width="34" height="42" viewBox="0 0 34 42" fill="none" xmlns="http://www.w3.org/2000/svg">
<path d="M17.1432 41.5024C19.4349 41.5024 21.3099 39.6274 21.3099 37.3358H12.9766C12.9766 39.6274 14.8516 41.5024 17.1432 41.5024ZM29.6432 29.0024V18.5858C29.6432 12.1899 26.2474 6.83577 20.2682 5.41911V4.00244C20.2682 2.27327 18.8724 0.877441 17.1432 0.877441C15.4141 0.877441 14.0182 2.27327 14.0182 4.00244V5.41911C8.0599 6.83577 4.64323 12.1691 4.64323 18.5858V29.0024L0.476562 33.1691V35.2524H33.8099V33.1691L29.6432 29.0024ZM25.4766 31.0858H8.8099V18.5858C8.8099 13.4191 11.9557 9.21077 17.1432 9.21077C22.3307 9.21077 25.4766 13.4191 25.4766 18.5858V31.0858Z" fill="black"/>
</svg>
